<?xml version="1.0" encoding="utf-8"?>
<!-- Generator: Adobe Illustrator 14.0.0, SVG Export Plug-In . SVG Version: 6.00 Build 43363)  -->
<!DOCTYPE svg PUBLIC "-//W3C//DTD SVG 1.1//EN" "http://www.w3.org/Graphics/SVG/1.1/DTD/svg11.dtd">
<svg version="1.1" id="Ebene_1" xmlns="http://www.w3.org/2000/svg" xmlns:xlink="http://www.w3.org/1999/xlink" x="0px" y="0px"
	 width="180px" height="90.313px" viewBox="-470.745 470.807 180 90.313" enable-background="new -470.745 470.807 180 90.313"
	 xml:space="preserve">
<path d="M-404.554,474.739c0,0.423-0.052,0.793-0.159,1.111c-0.104,0.315-0.25,0.59-0.431,0.817
	c-0.183,0.229-0.394,0.415-0.636,0.558c-0.24,0.141-0.49,0.247-0.75,0.314v0.037c0.318,0.06,0.615,0.17,0.892,0.335
	s0.519,0.37,0.724,0.617s0.371,0.538,0.494,0.872c0.122,0.336,0.184,0.703,0.184,1.103c0,0.482-0.081,0.924-0.246,1.322
	c-0.165,0.4-0.42,0.747-0.768,1.041c-0.347,0.294-0.783,0.523-1.313,0.688c-0.529,0.164-1.157,0.246-1.887,0.246h-2.485v-12.166
	h2.346c0.717,0,1.332,0.072,1.842,0.22c0.512,0.146,0.932,0.354,1.26,0.627c0.33,0.27,0.568,0.596,0.715,0.979
	C-404.627,473.842-404.554,474.269-404.554,474.739z M-406.105,474.792c0-0.563-0.2-1.026-0.6-1.393
	c-0.399-0.364-1.028-0.547-1.887-0.547h-0.811v4.196h0.793c0.824,0,1.445-0.199,1.869-0.601
	C-406.317,476.049-406.105,475.497-406.105,474.792z M-405.877,480.398c0-0.658-0.215-1.179-0.644-1.563
	c-0.429-0.382-1.043-0.571-1.843-0.571h-1.041v4.267h0.953c0.906,0,1.562-0.18,1.967-0.538
	C-406.078,481.635-405.877,481.104-405.877,480.398z M-396.427,483.801h-1.305v-0.951h-0.035c-0.036,0.068-0.112,0.174-0.229,0.308
	c-0.117,0.135-0.268,0.265-0.449,0.389c-0.182,0.123-0.402,0.231-0.661,0.326c-0.259,0.095-0.546,0.143-0.864,0.143
	c-0.376,0-0.714-0.058-1.014-0.167c-0.301-0.111-0.557-0.291-0.768-0.537c-0.211-0.248-0.373-0.567-0.483-0.962
	c-0.112-0.396-0.169-0.879-0.169-1.454v-5.557h1.429v5.448c0,0.705,0.115,1.208,0.344,1.507c0.229,0.3,0.585,0.45,1.067,0.45
	c0.41,0,0.758-0.103,1.04-0.309c0.282-0.205,0.504-0.408,0.67-0.608v-6.488h1.428L-396.427,483.801L-396.427,483.801z
	 M-389.621,483.801v-5.447c0-0.717-0.121-1.231-0.36-1.542c-0.242-0.313-0.609-0.468-1.103-0.468c-0.424,0-0.775,0.105-1.058,0.317
	c-0.283,0.211-0.506,0.417-0.67,0.617v6.522h-1.429v-8.463h1.305v0.953h0.036c0.036-0.07,0.11-0.174,0.229-0.309
	c0.117-0.136,0.271-0.265,0.459-0.389c0.187-0.122,0.41-0.231,0.67-0.325c0.258-0.095,0.551-0.143,0.881-0.143
	c0.375,0,0.717,0.059,1.022,0.168c0.306,0.111,0.563,0.291,0.774,0.538c0.213,0.247,0.377,0.567,0.494,0.96
	c0.119,0.396,0.177,0.879,0.177,1.456v5.555L-389.621,483.801L-389.621,483.801z M-386.447,479.693c0-0.858,0.111-1.576,0.334-2.151
	c0.225-0.575,0.513-1.041,0.865-1.393c0.353-0.354,0.752-0.604,1.198-0.75c0.447-0.147,0.894-0.222,1.341-0.222
	c0.27,0,0.504,0.021,0.705,0.063c0.2,0.042,0.363,0.091,0.493,0.15v-4.056l1.429-0.158v12.624h-1.306v-0.898h-0.035
	c-0.036,0.071-0.1,0.167-0.194,0.291c-0.094,0.124-0.224,0.247-0.389,0.37c-0.164,0.123-0.369,0.229-0.617,0.315
	c-0.246,0.089-0.533,0.133-0.863,0.133c-0.399,0-0.778-0.078-1.137-0.237s-0.674-0.411-0.943-0.758
	c-0.269-0.348-0.485-0.793-0.645-1.34C-386.367,481.13-386.447,480.469-386.447,479.693z M-383.098,482.744
	c0.225,0,0.423-0.03,0.6-0.088c0.176-0.059,0.33-0.133,0.459-0.221s0.238-0.181,0.326-0.273c0.088-0.093,0.155-0.176,0.202-0.247
	v-5.219c-0.129-0.082-0.278-0.152-0.45-0.211c-0.17-0.06-0.385-0.088-0.643-0.088c-0.329,0-0.639,0.055-0.926,0.168
	c-0.288,0.11-0.538,0.297-0.75,0.554c-0.211,0.259-0.379,0.595-0.502,1.005c-0.123,0.412-0.187,0.917-0.187,1.519
	c0,0.588,0.05,1.078,0.15,1.472c0.1,0.396,0.239,0.711,0.415,0.952c0.177,0.242,0.376,0.415,0.6,0.52
	S-383.344,482.744-383.098,482.744z M-372.466,478.195c0,0.365-0.012,0.679-0.036,0.943c-0.021,0.264-0.046,0.495-0.068,0.694
	h-4.321c0.049,0.999,0.266,1.734,0.646,2.204c0.383,0.471,0.932,0.705,1.646,0.705c0.248,0,0.471-0.03,0.668-0.088
	c0.201-0.059,0.375-0.13,0.521-0.212s0.271-0.165,0.371-0.247c0.102-0.082,0.172-0.146,0.219-0.194l0.529,1.005
	c-0.059,0.062-0.146,0.146-0.266,0.258c-0.115,0.109-0.275,0.223-0.476,0.335c-0.2,0.109-0.446,0.208-0.739,0.291
	c-0.295,0.083-0.642,0.122-1.041,0.122c-0.529,0-1.011-0.088-1.438-0.265c-0.432-0.176-0.793-0.45-1.094-0.819
	s-0.531-0.841-0.695-1.41c-0.164-0.57-0.248-1.254-0.248-2.056c0-0.752,0.086-1.4,0.258-1.946c0.17-0.548,0.402-0.996,0.695-1.351
	c0.293-0.353,0.635-0.613,1.021-0.785c0.389-0.17,0.807-0.256,1.25-0.256c0.813,0,1.448,0.256,1.903,0.769
	C-372.695,476.405-372.466,477.172-372.466,478.195z M-375.146,476.291c-0.504,0-0.91,0.211-1.216,0.636
	c-0.307,0.424-0.481,1.033-0.53,1.833h3.088c0.012-0.059,0.021-0.145,0.024-0.257c0.007-0.109,0.011-0.23,0.011-0.359
	c0-0.589-0.117-1.044-0.354-1.367C-374.358,476.452-374.699,476.291-375.146,476.291z M-366.912,477.049
	c-0.095-0.105-0.265-0.25-0.513-0.433c-0.245-0.182-0.567-0.273-0.969-0.273c-0.375,0-0.664,0.089-0.865,0.266
	c-0.198,0.176-0.299,0.388-0.299,0.634c0,0.317,0.092,0.579,0.271,0.785c0.184,0.206,0.463,0.426,0.84,0.661l0.529,0.315
	c0.574,0.343,1.025,0.708,1.355,1.104c0.328,0.394,0.493,0.901,0.493,1.523c0,0.671-0.231,1.234-0.696,1.693
	c-0.463,0.459-1.131,0.688-2,0.688c-0.342,0-0.642-0.035-0.898-0.105c-0.26-0.07-0.484-0.153-0.68-0.247
	c-0.193-0.094-0.355-0.197-0.484-0.308c-0.129-0.112-0.234-0.215-0.316-0.311l0.688-1.129c0.069,0.071,0.155,0.152,0.258,0.247
	c0.101,0.095,0.22,0.188,0.359,0.273s0.299,0.162,0.477,0.221c0.177,0.058,0.382,0.088,0.617,0.088c0.422,0,0.746-0.094,0.97-0.282
	c0.223-0.188,0.336-0.417,0.336-0.688c0-0.2-0.027-0.373-0.078-0.521c-0.056-0.146-0.135-0.277-0.24-0.396
	c-0.104-0.117-0.232-0.229-0.387-0.334c-0.152-0.106-0.33-0.226-0.527-0.354l-0.531-0.335c-0.527-0.341-0.941-0.698-1.242-1.076
	c-0.299-0.376-0.449-0.856-0.449-1.444c0-0.317,0.063-0.609,0.187-0.873c0.123-0.265,0.297-0.493,0.521-0.688
	c0.224-0.192,0.484-0.347,0.783-0.458c0.301-0.109,0.619-0.168,0.963-0.168c0.326,0,0.609,0.033,0.846,0.099
	c0.235,0.064,0.438,0.146,0.607,0.248c0.17,0.1,0.313,0.198,0.424,0.299c0.109,0.1,0.201,0.186,0.273,0.255L-366.912,477.049z
	 M-359.947,483.801v-5.447c0-0.693-0.103-1.192-0.301-1.498c-0.199-0.307-0.521-0.458-0.97-0.458c-0.233,0-0.442,0.028-0.625,0.088
	c-0.182,0.059-0.344,0.132-0.485,0.22s-0.265,0.188-0.369,0.291c-0.106,0.106-0.194,0.2-0.266,0.283v6.522h-1.429v-8.464h1.306
	v0.953h0.036c0.058-0.094,0.146-0.208,0.265-0.344c0.117-0.136,0.265-0.265,0.438-0.389c0.177-0.123,0.381-0.228,0.617-0.31
	c0.234-0.083,0.5-0.124,0.793-0.124c0.963,0,1.646,0.376,2.045,1.129c0.082-0.117,0.193-0.243,0.334-0.379
	c0.144-0.135,0.308-0.258,0.494-0.37c0.188-0.109,0.398-0.2,0.635-0.271c0.234-0.071,0.494-0.106,0.776-0.106
	c1.716,0,2.573,1,2.573,2.997v5.679h-1.43v-5.448c0-0.693-0.121-1.192-0.369-1.498c-0.246-0.307-0.611-0.458-1.094-0.458
	c-0.398,0-0.73,0.097-0.996,0.291c-0.264,0.193-0.473,0.379-0.625,0.556c0.022,0.129,0.039,0.27,0.053,0.415
	c0.013,0.147,0.02,0.302,0.02,0.466v5.68h-1.428L-359.947,483.801L-359.947,483.801z M-350.515,483.801h-1.43v-8.463h1.43V483.801z
	 M-351.222,473.293c-0.293,0-0.526-0.094-0.705-0.281c-0.178-0.188-0.264-0.436-0.264-0.739c0-0.294,0.086-0.535,0.264-0.724
	c0.179-0.188,0.412-0.281,0.705-0.281c0.283,0,0.515,0.094,0.688,0.281c0.177,0.188,0.265,0.429,0.265,0.724
	c0,0.306-0.088,0.553-0.265,0.739C-350.707,473.199-350.937,473.293-351.222,473.293z M-343.709,483.801v-5.447
	c0-0.717-0.121-1.231-0.361-1.542c-0.241-0.313-0.608-0.468-1.103-0.468c-0.424,0-0.776,0.105-1.059,0.317
	c-0.283,0.211-0.506,0.417-0.67,0.617v6.522h-1.43v-8.463h1.305v0.953h0.035c0.037-0.07,0.113-0.174,0.229-0.309
	c0.117-0.136,0.271-0.265,0.459-0.389c0.188-0.122,0.412-0.231,0.67-0.325c0.26-0.095,0.553-0.143,0.883-0.143
	c0.375,0,0.717,0.059,1.021,0.168c0.305,0.111,0.563,0.291,0.774,0.538c0.213,0.247,0.377,0.567,0.494,0.96
	c0.116,0.396,0.176,0.879,0.176,1.456v5.555L-343.709,483.801L-343.709,483.801z M-338.72,483.801h-1.43v-8.463h1.43V483.801z
	 M-339.427,473.293c-0.293,0-0.526-0.094-0.705-0.281c-0.176-0.188-0.264-0.436-0.264-0.739c0-0.294,0.088-0.535,0.264-0.724
	c0.179-0.188,0.412-0.281,0.705-0.281c0.281,0,0.513,0.094,0.688,0.281c0.178,0.188,0.266,0.429,0.266,0.724
	c0,0.306-0.088,0.553-0.266,0.739C-338.914,473.199-339.144,473.293-339.427,473.293z M-332.886,477.049
	c-0.094-0.105-0.262-0.25-0.512-0.433c-0.246-0.182-0.57-0.273-0.969-0.273c-0.377,0-0.664,0.089-0.863,0.266
	c-0.201,0.176-0.303,0.388-0.303,0.634c0,0.317,0.092,0.579,0.273,0.785c0.183,0.206,0.463,0.426,0.838,0.661l0.529,0.315
	c0.576,0.343,1.026,0.708,1.356,1.104c0.328,0.394,0.492,0.901,0.492,1.523c0,0.671-0.229,1.234-0.695,1.693
	c-0.463,0.459-1.131,0.688-2,0.688c-0.342,0-0.641-0.035-0.899-0.105c-0.258-0.07-0.484-0.153-0.68-0.247
	c-0.193-0.094-0.354-0.197-0.484-0.308c-0.129-0.112-0.232-0.215-0.314-0.311l0.688-1.129c0.07,0.071,0.156,0.152,0.259,0.247
	c0.098,0.095,0.219,0.188,0.36,0.273c0.14,0.088,0.299,0.162,0.476,0.221c0.176,0.058,0.381,0.088,0.616,0.088
	c0.423,0,0.746-0.094,0.97-0.282c0.226-0.188,0.336-0.417,0.336-0.688c0-0.2-0.024-0.373-0.08-0.521
	c-0.053-0.146-0.131-0.277-0.237-0.396c-0.104-0.117-0.232-0.229-0.39-0.334c-0.149-0.106-0.328-0.226-0.526-0.354l-0.529-0.335
	c-0.527-0.341-0.941-0.698-1.242-1.076c-0.301-0.376-0.449-0.856-0.449-1.444c0-0.317,0.063-0.609,0.186-0.873
	c0.125-0.265,0.297-0.493,0.521-0.688c0.223-0.192,0.484-0.347,0.783-0.458c0.301-0.109,0.621-0.168,0.961-0.168
	c0.33,0,0.611,0.033,0.848,0.099c0.236,0.063,0.438,0.146,0.609,0.248c0.168,0.1,0.313,0.198,0.422,0.299
	c0.111,0.1,0.203,0.186,0.273,0.255L-332.886,477.049z M-326.748,476.501h-1.853v4.69c0,0.6,0.076,1.008,0.229,1.226
	c0.15,0.218,0.412,0.326,0.775,0.326c0.211,0,0.395-0.03,0.547-0.088c0.152-0.059,0.266-0.112,0.334-0.158l0.193,1.146
	c-0.06,0.047-0.199,0.12-0.423,0.22c-0.223,0.1-0.522,0.15-0.899,0.15c-0.729,0-1.273-0.202-1.639-0.607
	c-0.365-0.406-0.548-1.079-0.548-2.021v-4.885h-1.021v-0.952l1.021-0.212l0.158-2.36h1.271v2.36h2.026L-326.748,476.501z
	 M-319.818,478.195c0,0.365-0.014,0.679-0.036,0.943c-0.023,0.264-0.047,0.495-0.07,0.694h-4.318
	c0.047,0.999,0.264,1.734,0.645,2.204c0.381,0.471,0.933,0.705,1.646,0.705c0.248,0,0.471-0.03,0.67-0.088
	c0.201-0.059,0.373-0.13,0.521-0.212c0.146-0.082,0.271-0.165,0.369-0.247c0.1-0.082,0.174-0.146,0.221-0.194l0.529,1.005
	c-0.061,0.062-0.147,0.146-0.266,0.258c-0.115,0.109-0.275,0.223-0.477,0.335c-0.199,0.109-0.447,0.208-0.74,0.291
	s-0.643,0.122-1.041,0.122c-0.527,0-1.008-0.088-1.438-0.265c-0.431-0.176-0.793-0.45-1.093-0.819
	c-0.301-0.369-0.532-0.841-0.696-1.41c-0.164-0.57-0.246-1.254-0.246-2.056c0-0.752,0.084-1.4,0.256-1.946
	c0.17-0.548,0.402-0.996,0.697-1.351c0.293-0.353,0.633-0.613,1.021-0.785c0.388-0.171,0.808-0.256,1.254-0.256
	c0.81,0,1.442,0.256,1.901,0.769C-320.05,476.403-319.818,477.172-319.818,478.195z M-322.498,476.291
	c-0.506,0-0.912,0.211-1.218,0.636c-0.307,0.424-0.481,1.033-0.528,1.833h3.086c0.013-0.059,0.021-0.145,0.024-0.257
	c0.007-0.109,0.011-0.23,0.011-0.359c0-0.589-0.117-1.044-0.354-1.367C-321.711,476.452-322.054,476.291-322.498,476.291z
	 M-314.195,476.589c-0.034-0.021-0.11-0.053-0.229-0.088c-0.117-0.034-0.275-0.053-0.475-0.053c-0.447,0-0.798,0.121-1.05,0.362
	c-0.254,0.24-0.435,0.502-0.539,0.783v6.206h-1.428v-8.462h1.306v1.146h0.034c0.06-0.165,0.136-0.326,0.229-0.485
	c0.094-0.158,0.213-0.3,0.354-0.423c0.143-0.124,0.311-0.221,0.502-0.291c0.195-0.071,0.428-0.104,0.697-0.104
	c0.199,0,0.361,0.018,0.484,0.053s0.219,0.063,0.289,0.088L-314.195,476.589z M-311.354,483.801h-1.431v-8.463h1.431V483.801z
	 M-312.06,473.293c-0.295,0-0.529-0.094-0.707-0.281c-0.176-0.188-0.265-0.436-0.265-0.739c0-0.294,0.089-0.535,0.265-0.724
	c0.178-0.188,0.412-0.281,0.707-0.281c0.278,0,0.51,0.094,0.688,0.281s0.266,0.429,0.266,0.724c0,0.306-0.088,0.553-0.266,0.739
	C-311.552,473.199-311.781,473.293-312.06,473.293z M-303.246,483.801h-1.304v-0.951h-0.036c-0.035,0.068-0.111,0.174-0.229,0.308
	c-0.117,0.135-0.269,0.265-0.449,0.389c-0.185,0.123-0.402,0.231-0.662,0.326s-0.547,0.143-0.863,0.143
	c-0.375,0-0.713-0.058-1.016-0.167c-0.299-0.111-0.556-0.291-0.767-0.537c-0.211-0.248-0.373-0.567-0.485-0.962
	c-0.109-0.396-0.166-0.879-0.166-1.454v-5.557h1.428v5.448c0,0.705,0.115,1.208,0.346,1.507c0.229,0.301,0.584,0.45,1.064,0.45
	c0.414,0,0.76-0.103,1.041-0.309c0.283-0.205,0.507-0.408,0.67-0.608v-6.488h1.43L-303.246,483.801L-303.246,483.801z
	 M-296.617,483.801v-5.447c0-0.693-0.101-1.192-0.299-1.498c-0.199-0.307-0.522-0.458-0.97-0.458c-0.235,0-0.444,0.028-0.627,0.088
	c-0.184,0.059-0.342,0.132-0.483,0.22s-0.267,0.188-0.371,0.291c-0.104,0.106-0.192,0.2-0.265,0.283v6.522h-1.428v-8.464h1.306
	v0.953h0.034c0.06-0.094,0.146-0.208,0.265-0.344s0.265-0.265,0.44-0.389c0.177-0.123,0.381-0.228,0.615-0.31
	c0.236-0.083,0.502-0.124,0.795-0.124c0.963,0,1.646,0.376,2.045,1.129c0.082-0.117,0.193-0.243,0.336-0.379
	c0.142-0.135,0.306-0.258,0.492-0.37c0.189-0.109,0.398-0.2,0.637-0.271c0.233-0.071,0.492-0.106,0.774-0.106
	c1.718,0,2.573,1,2.573,2.997v5.679h-1.43v-5.448c0-0.693-0.121-1.192-0.369-1.498c-0.246-0.307-0.611-0.458-1.094-0.458
	c-0.398,0-0.73,0.097-0.996,0.291c-0.264,0.193-0.473,0.379-0.627,0.556c0.024,0.129,0.043,0.27,0.055,0.415
	c0.013,0.147,0.02,0.302,0.02,0.466v5.68h-1.43L-296.617,483.801L-296.617,483.801z M-407.675,494.281h-1.728v7.3h-1.428v-7.3
	h-1.023v-0.952l1.023-0.193v-1.691c0-0.458,0.063-0.854,0.193-1.182c0.129-0.328,0.301-0.601,0.512-0.812
	c0.211-0.212,0.457-0.365,0.74-0.458c0.282-0.094,0.582-0.141,0.899-0.141c0.306,0,0.563,0.041,0.776,0.124
	c0.211,0.082,0.353,0.146,0.422,0.192l-0.299,1.183c-0.072-0.048-0.172-0.1-0.301-0.15s-0.288-0.079-0.477-0.079
	c-0.34,0-0.6,0.105-0.776,0.316c-0.176,0.212-0.265,0.6-0.265,1.164v1.517h1.906L-407.675,494.281z M-400.341,501.581h-1.304v-0.953
	h-0.036c-0.036,0.071-0.111,0.174-0.229,0.311c-0.117,0.135-0.268,0.265-0.449,0.389c-0.184,0.123-0.403,0.231-0.661,0.326
	c-0.259,0.095-0.547,0.141-0.864,0.141c-0.376,0-0.714-0.056-1.014-0.167c-0.301-0.109-0.555-0.291-0.768-0.538
	c-0.211-0.247-0.373-0.565-0.484-0.962c-0.111-0.394-0.167-0.878-0.167-1.453v-5.555h1.428v5.448c0,0.704,0.114,1.207,0.345,1.507
	c0.229,0.3,0.584,0.45,1.065,0.45c0.412,0,0.758-0.104,1.041-0.311c0.282-0.205,0.506-0.406,0.669-0.607v-6.487h1.428V501.581
	L-400.341,501.581z M-403.849,490.685c0,0.27-0.083,0.486-0.248,0.65c-0.165,0.165-0.364,0.247-0.599,0.247
	c-0.235,0-0.436-0.083-0.6-0.247c-0.164-0.165-0.248-0.383-0.248-0.65c0-0.271,0.084-0.488,0.248-0.652
	c0.164-0.166,0.363-0.247,0.6-0.247c0.234,0,0.434,0.082,0.599,0.247C-403.932,490.197-403.849,490.414-403.849,490.685z
	 M-401.134,490.685c0,0.27-0.083,0.486-0.247,0.65c-0.164,0.165-0.365,0.247-0.6,0.247c-0.235,0-0.436-0.083-0.6-0.247
	c-0.164-0.165-0.248-0.383-0.248-0.65c0-0.271,0.084-0.488,0.248-0.652c0.164-0.166,0.363-0.247,0.6-0.247
	c0.234,0,0.436,0.082,0.6,0.247C-401.217,490.197-401.134,490.414-401.134,490.685z M-394.433,494.369
	c-0.036-0.021-0.111-0.052-0.229-0.088c-0.119-0.035-0.276-0.053-0.478-0.053c-0.446,0-0.796,0.121-1.048,0.36
	c-0.252,0.241-0.432,0.503-0.538,0.784v6.206h-1.429v-8.462h1.305v1.146h0.036c0.06-0.165,0.135-0.326,0.229-0.485
	c0.094-0.159,0.211-0.3,0.353-0.423c0.141-0.124,0.309-0.222,0.501-0.291c0.195-0.071,0.426-0.106,0.697-0.106
	c0.199,0,0.361,0.02,0.484,0.056c0.124,0.033,0.221,0.063,0.291,0.088L-394.433,494.369z M-381.916,500.77
	c-0.082,0.068-0.205,0.161-0.369,0.271c-0.166,0.111-0.379,0.225-0.645,0.334c-0.264,0.111-0.579,0.208-0.943,0.291
	c-0.363,0.083-0.781,0.123-1.252,0.123c-0.692,0-1.336-0.106-1.931-0.326c-0.593-0.217-1.104-0.57-1.532-1.064
	c-0.431-0.493-0.765-1.149-1.006-1.966c-0.24-0.816-0.361-1.825-0.361-3.023c0-1.14,0.149-2.104,0.451-2.892
	c0.299-0.787,0.692-1.43,1.18-1.921c0.488-0.494,1.041-0.852,1.658-1.067c0.616-0.217,1.248-0.326,1.896-0.326
	c0.459,0,0.851,0.041,1.173,0.124c0.323,0.082,0.6,0.183,0.828,0.299c0.229,0.118,0.414,0.235,0.557,0.354
	c0.141,0.118,0.258,0.217,0.352,0.3l-0.723,1.076c-0.059-0.061-0.147-0.139-0.265-0.238s-0.269-0.197-0.451-0.291
	c-0.182-0.094-0.399-0.176-0.651-0.248c-0.254-0.069-0.549-0.104-0.892-0.104c-0.458,0-0.896,0.083-1.313,0.247
	c-0.416,0.164-0.783,0.439-1.102,0.828c-0.318,0.389-0.574,0.896-0.767,1.524c-0.193,0.628-0.291,1.408-0.291,2.336
	c0,0.917,0.069,1.696,0.211,2.336c0.142,0.643,0.353,1.164,0.635,1.569c0.282,0.405,0.629,0.699,1.04,0.882
	c0.412,0.184,0.895,0.273,1.446,0.273c0.306,0,0.593-0.029,0.864-0.089c0.271-0.061,0.512-0.13,0.723-0.213v-3.543h-1.939v-1.219
	h3.42L-381.916,500.77L-381.916,500.77z M-374.39,495.974c0,0.363-0.01,0.679-0.033,0.941c-0.022,0.266-0.047,0.497-0.071,0.696
	h-4.317c0.047,1,0.262,1.734,0.645,2.205c0.383,0.47,0.932,0.705,1.646,0.705c0.248,0,0.471-0.029,0.67-0.088
	c0.199-0.061,0.373-0.129,0.521-0.212c0.146-0.082,0.27-0.164,0.369-0.247c0.1-0.082,0.174-0.146,0.221-0.193l0.529,1.005
	c-0.061,0.062-0.146,0.146-0.266,0.256c-0.117,0.111-0.273,0.225-0.478,0.334c-0.199,0.111-0.444,0.208-0.737,0.291
	c-0.295,0.083-0.644,0.123-1.041,0.123c-0.531,0-1.011-0.088-1.438-0.264c-0.431-0.176-0.796-0.45-1.095-0.819
	c-0.299-0.37-0.53-0.84-0.694-1.411c-0.164-0.568-0.248-1.254-0.248-2.054c0-0.752,0.086-1.401,0.256-1.948
	c0.17-0.546,0.401-0.995,0.695-1.349c0.293-0.354,0.635-0.614,1.022-0.785c0.389-0.17,0.805-0.256,1.252-0.256
	c0.812,0,1.443,0.256,1.902,0.767C-374.617,494.184-374.39,494.951-374.39,495.974z M-377.067,494.07
	c-0.505,0-0.91,0.211-1.218,0.634c-0.306,0.423-0.479,1.035-0.526,1.834h3.086c0.012-0.059,0.021-0.144,0.024-0.256
	c0.006-0.111,0.011-0.23,0.011-0.361c0-0.588-0.119-1.043-0.353-1.366C-376.279,494.23-376.619,494.07-377.067,494.07z
	 M-368.834,494.828c-0.095-0.104-0.265-0.25-0.513-0.432c-0.246-0.185-0.569-0.273-0.971-0.273c-0.375,0-0.662,0.088-0.863,0.267
	c-0.198,0.176-0.299,0.388-0.299,0.634c0,0.315,0.092,0.579,0.273,0.784s0.461,0.426,0.836,0.661l0.527,0.316
	c0.576,0.34,1.029,0.708,1.359,1.103c0.327,0.394,0.491,0.901,0.491,1.524c0,0.67-0.231,1.234-0.694,1.693
	c-0.463,0.458-1.132,0.688-2.002,0.688c-0.34,0-0.64-0.034-0.898-0.104c-0.26-0.07-0.484-0.153-0.678-0.247
	c-0.194-0.094-0.355-0.197-0.484-0.309c-0.131-0.111-0.235-0.216-0.318-0.31l0.689-1.128c0.068,0.071,0.154,0.152,0.254,0.247
	c0.102,0.094,0.222,0.185,0.361,0.272c0.143,0.087,0.301,0.161,0.477,0.221c0.178,0.059,0.383,0.088,0.617,0.088
	c0.424,0,0.746-0.094,0.971-0.282c0.223-0.188,0.334-0.417,0.334-0.688c0-0.2-0.025-0.373-0.078-0.521
	c-0.053-0.146-0.133-0.279-0.238-0.396c-0.104-0.118-0.235-0.23-0.389-0.336c-0.152-0.106-0.328-0.225-0.529-0.353l-0.526-0.336
	c-0.529-0.34-0.942-0.699-1.242-1.075c-0.301-0.376-0.45-0.856-0.45-1.445c0-0.315,0.063-0.607,0.188-0.871
	c0.121-0.266,0.297-0.493,0.52-0.688c0.225-0.194,0.486-0.347,0.785-0.458c0.301-0.111,0.619-0.168,0.961-0.168
	c0.328,0,0.611,0.032,0.848,0.097c0.234,0.065,0.438,0.147,0.607,0.248c0.17,0.102,0.311,0.2,0.422,0.3
	c0.113,0.101,0.203,0.187,0.273,0.256L-368.834,494.828z M-360.388,501.581h-1.307v-0.953h-0.035
	c-0.035,0.071-0.111,0.174-0.229,0.311c-0.119,0.135-0.27,0.265-0.449,0.389c-0.184,0.123-0.402,0.231-0.661,0.326
	s-0.548,0.141-0.864,0.141c-0.377,0-0.713-0.056-1.016-0.167c-0.299-0.109-0.555-0.291-0.768-0.538s-0.371-0.565-0.482-0.962
	c-0.111-0.394-0.168-0.878-0.168-1.453v-5.555h1.428v5.448c0,0.704,0.113,1.207,0.346,1.507c0.229,0.3,0.584,0.45,1.065,0.45
	c0.411,0,0.759-0.104,1.04-0.311c0.283-0.205,0.506-0.406,0.672-0.607v-6.487h1.428V501.581L-360.388,501.581z M-353.584,501.581
	v-5.447c0-0.718-0.119-1.23-0.359-1.542c-0.241-0.313-0.608-0.468-1.104-0.468c-0.423,0-0.775,0.105-1.058,0.317
	c-0.283,0.211-0.507,0.417-0.67,0.617v6.521h-1.43v-8.463h1.307v0.953h0.033c0.035-0.071,0.113-0.174,0.229-0.31
	c0.119-0.137,0.271-0.265,0.459-0.389c0.188-0.123,0.414-0.23,0.672-0.327c0.258-0.094,0.553-0.141,0.881-0.141
	c0.375,0,0.717,0.057,1.021,0.168c0.307,0.111,0.563,0.291,0.774,0.538c0.213,0.247,0.377,0.567,0.494,0.961
	c0.116,0.396,0.176,0.879,0.176,1.456v5.553L-353.584,501.581L-353.584,501.581z M-350.408,497.473c0-0.858,0.11-1.576,0.334-2.151
	c0.224-0.576,0.513-1.041,0.863-1.394c0.354-0.354,0.754-0.604,1.198-0.75c0.447-0.146,0.894-0.222,1.343-0.222
	c0.271,0,0.504,0.021,0.704,0.063c0.199,0.042,0.363,0.092,0.494,0.148v-4.055l1.429-0.159v12.624h-1.306v-0.897h-0.035
	c-0.036,0.069-0.101,0.167-0.194,0.291s-0.224,0.246-0.388,0.369c-0.166,0.122-0.37,0.229-0.616,0.316s-0.537,0.132-0.865,0.132
	c-0.397,0-0.776-0.079-1.137-0.238c-0.359-0.157-0.675-0.409-0.942-0.759c-0.271-0.346-0.484-0.793-0.646-1.339
	C-350.33,498.91-350.408,498.249-350.408,497.473z M-347.06,500.523c0.225,0,0.426-0.029,0.602-0.088
	c0.176-0.061,0.33-0.133,0.459-0.222c0.129-0.088,0.236-0.179,0.324-0.271c0.09-0.094,0.156-0.176,0.203-0.247v-5.219
	c-0.131-0.082-0.277-0.153-0.449-0.211c-0.17-0.06-0.385-0.089-0.645-0.089c-0.328,0-0.638,0.057-0.925,0.168
	c-0.289,0.11-0.539,0.298-0.75,0.556c-0.213,0.259-0.379,0.594-0.502,1.005c-0.125,0.412-0.188,0.917-0.188,1.517
	c0,0.589,0.052,1.079,0.15,1.474c0.102,0.395,0.238,0.711,0.414,0.952c0.178,0.239,0.377,0.413,0.602,0.52
	C-347.541,500.469-347.308,500.523-347.06,500.523z M-337.238,501.581v-5.447c0-0.718-0.12-1.23-0.36-1.542
	c-0.242-0.313-0.607-0.468-1.103-0.468c-0.424,0-0.776,0.105-1.06,0.317c-0.282,0.211-0.506,0.417-0.67,0.617v6.521h-1.428v-12.464
	l1.428-0.159v5.025h0.035c0.049-0.07,0.119-0.165,0.221-0.282c0.101-0.117,0.238-0.234,0.414-0.352
	c0.179-0.118,0.392-0.223,0.646-0.311c0.252-0.088,0.548-0.132,0.89-0.132c0.74,0,1.328,0.241,1.766,0.724
	c0.436,0.482,0.652,1.281,0.652,2.397v5.554H-337.238L-337.238,501.581z M-328.248,495.974c0,0.363-0.013,0.679-0.035,0.941
	c-0.022,0.266-0.047,0.497-0.069,0.696h-4.318c0.047,1,0.262,1.734,0.643,2.205c0.383,0.47,0.934,0.705,1.65,0.705
	c0.244,0,0.471-0.029,0.668-0.088c0.199-0.061,0.375-0.129,0.521-0.212c0.146-0.082,0.271-0.164,0.37-0.247
	c0.101-0.082,0.173-0.146,0.22-0.193l0.529,1.005c-0.059,0.062-0.148,0.146-0.266,0.256c-0.115,0.111-0.275,0.225-0.477,0.334
	c-0.199,0.111-0.447,0.208-0.74,0.291s-0.641,0.123-1.041,0.123c-0.527,0-1.006-0.088-1.438-0.264
	c-0.428-0.176-0.791-0.45-1.092-0.819c-0.3-0.37-0.533-0.84-0.696-1.411c-0.162-0.568-0.246-1.254-0.246-2.054
	c0-0.752,0.086-1.401,0.258-1.948c0.168-0.546,0.399-0.995,0.694-1.349c0.293-0.354,0.636-0.614,1.021-0.785
	c0.39-0.17,0.808-0.256,1.252-0.256c0.812,0,1.445,0.256,1.904,0.767C-328.476,494.184-328.248,494.951-328.248,495.974z
	 M-330.927,494.07c-0.506,0-0.912,0.211-1.217,0.634c-0.307,0.423-0.481,1.035-0.528,1.834h3.086
	c0.012-0.059,0.021-0.144,0.024-0.256c0.006-0.111,0.01-0.23,0.01-0.361c0-0.588-0.118-1.043-0.354-1.366
	C-330.142,494.23-330.479,494.07-330.927,494.07z M-324.914,501.581h-1.429v-8.463h1.429V501.581z M-325.619,491.073
	c-0.293,0-0.528-0.094-0.707-0.282c-0.174-0.188-0.265-0.435-0.265-0.74c0-0.293,0.089-0.534,0.265-0.723
	c0.179-0.188,0.414-0.283,0.707-0.283c0.283,0,0.511,0.096,0.688,0.283c0.177,0.188,0.265,0.43,0.265,0.723
	c0,0.307-0.088,0.554-0.265,0.74C-325.108,490.978-325.338,491.073-325.619,491.073z M-319.115,494.281h-1.851v4.69
	c0,0.6,0.076,1.008,0.229,1.226c0.154,0.217,0.412,0.326,0.775,0.326c0.213,0,0.396-0.029,0.547-0.088
	c0.152-0.061,0.266-0.112,0.336-0.158l0.193,1.146c-0.061,0.046-0.199,0.119-0.424,0.22c-0.224,0.1-0.521,0.148-0.898,0.148
	c-0.729,0-1.275-0.201-1.641-0.605c-0.363-0.406-0.547-1.079-0.547-2.021v-4.884h-1.021v-0.952l1.021-0.211l0.158-2.363h1.27v2.363
	h2.027L-319.115,494.281z"/>
<path d="M-440.64,482.307c1.517,2.396,2.704,2.356,4.497,2.356c-1.484-1.138-2.465-2.593-2.932-3.337l-2.771-4.434
	c-0.271-1.369-0.979-2.649-2.039-3.603c0.356-0.135,0.653-0.275,0.832-0.412c-1.81,0-3.603-0.919-4.589-0.919
	c-0.635,0-1.042,0.379-1.042,0.881c0.041,0.559,0.615,1.126,1.677,1.126c0.241,0,0.549-0.031,0.887-0.089
	c0.575,0.803,1.039,1.526,1.039,2.562c0,1.939-2.321,3.454-4.664,3.454c-0.132,0-0.258-0.005-0.391-0.017
	c-0.213-0.479-0.918-1.289-0.918-2.208c0-1.542,1.006-2.801,1.006-4.33c0-0.947-0.463-1.534-0.641-1.779
	c0.288-0.269,0.604-0.597,0.676-0.819c-0.167,0.072-0.364,0.082-0.653,0.082c-1.124,0-2.039-0.292-2.933-0.292
	c-0.509,0-0.646,0.158-0.646,0.307c0,0.056,0.009,0.111,0.022,0.14c-0.189-0.075-0.368-0.123-0.58-0.162
	c-0.263-0.05-0.547-0.075-0.849-0.075c-1.084,0-1.47,0.455-1.47,0.844c0,0.33,0.26,0.934,0.554,1.393
	c0.423-0.213,0.931-0.357,1.163-0.357c0.575,0,1.087,0.549,1.358,1.198c-0.388,0.046-0.462,0.063-0.854,0.063
	c-1.055,0-1.772-0.378-1.922-0.378c-0.014,0-0.042,0.008-0.042,0.03c0,0.149,0.3,0.54,0.89,0.755
	c0.777,0.285,1.942,0.403,2.137,0.437c0,0.032-0.197,0.4-0.417,0.473c-0.048,0.015-0.083,0.017-0.138,0.006
	c-0.813-0.161-1.04-0.229-2.068-0.621c-0.032-0.012-0.051,0.007-0.051,0.041c0,0.407,1.056,1.307,2,1.65
	c-0.79,1.008-1.774,2.039-2.239,3.609c-0.133,0.012-0.26,0.017-0.392,0.017c-2.343,0-4.663-1.514-4.663-3.454
	c0-1.034,0.464-1.758,1.04-2.561c0.338,0.056,0.646,0.088,0.887,0.088c1.062,0,1.637-0.568,1.679-1.126
	c0-0.501-0.408-0.881-1.044-0.881c-0.987,0-2.778,0.92-4.589,0.92c0.181,0.135,0.478,0.276,0.833,0.412
	c-1.06,0.952-1.769,2.232-2.039,3.602l-2.771,4.433c-0.467,0.744-1.451,2.199-2.934,3.337c1.793,0,2.98,0.04,4.498-2.356l1.42-2.273
	c0.104,0.295,0.234,0.582,0.387,0.864l-2.825,4.52c-0.47,0.749-1.443,2.193-2.933,3.337c1.792,0,2.979,0.042,4.497-2.354
	l2.433-3.895c0.183,0.192,0.374,0.384,0.576,0.563l-3.432,5.494c-0.473,0.751-1.44,2.188-2.934,3.334
	c1.793,0,2.981,0.043,4.498-2.355l3.346-5.354c0.22,0.139,0.445,0.273,0.679,0.401l-4.084,6.533
	c-0.472,0.752-1.44,2.188-2.933,3.333c1.793,0,2.981,0.042,4.498-2.354l4.204-6.73c0.249,0.097,0.502,0.188,0.758,0.271
	l-4.751,7.604c-0.464,0.741-1.455,2.202-2.932,3.333c1.792,0,2.981,0.041,4.497-2.354l5.064-8.105
	c0.051,0.008,0.103,0.019,0.151,0.027c0.139,0.438,0.234,0.846,0.234,1.254c0,2.546-1.67,4.796-3.677,6.532
	c0.128,0.057,0.352,0.075,0.559,0.075c0.414,0,0.681-0.021,0.869-0.056c-0.465,1.057-1.462,2.421-1.967,3.126
	c-0.657-0.119-1.611-0.211-2.237-0.211c-0.654,0-0.729,0.384-0.729,0.726c0,0.595,0.277,1.066,0.603,1.331
	c0.121-0.305,0.365-0.711,1.575-0.711c0.022,0,0.064,0.004,0.122,0.008c-0.354,0.395-1.46,1.288-1.46,2.009
	c0,0.478,0.522,1.19,1.213,1.19c-0.042-0.151-0.036-0.295-0.036-0.399c0-0.584,0.517-1.27,0.953-1.744
	c-0.013,0.142-0.006,0.127-0.006,0.293c0,1.38,0.125,2.014,1.001,2.014c0.43,0,0.727-0.235,0.827-0.306
	c-0.568-0.524-0.599-0.936-0.599-1.709c0.001-0.201,0.002-0.398,0.005-0.67c0.002-0.177,0-0.411-0.028-0.58
	c0.313-0.043,0.439-0.043,0.682-0.043c0,0,1.245-0.1,1.543,0.548c0.338-0.311,0.828-0.747,0.828-1.229
	c0-0.317-0.151-0.68-0.792-0.68c-0.243,0-1.005,0.149-1.645,0.149c0.171-0.381,0.937-1.499,1.598-2.311
	c0.1,0.314,0.256,0.654,0.604,0.934c0.047-0.521,0.354-2.17,1.168-3.135c0.094,0.651,0.224,1.319,0.224,2.729
	c0,3.428-0.824,5.959-2.574,6.443c0.228,0.396,0.708,0.753,1.208,0.753c0.64,0,0.989-0.726,1.344-1.407
	c0.186,0.503,0.696,1.739,1.209,1.739c0.512,0,1.024-1.235,1.209-1.739c0.355,0.683,0.704,1.407,1.344,1.407
	c0.5,0,0.981-0.356,1.209-0.753c-1.75-0.483-2.574-3.017-2.574-6.443c0-1.409,0.127-2.078,0.222-2.729
	c0.814,0.965,1.122,2.612,1.169,3.135c0.347-0.278,0.504-0.618,0.604-0.934c0.662,0.813,1.426,1.93,1.599,2.311
	c-0.641,0-1.403-0.149-1.646-0.149c-0.64,0-0.791,0.361-0.791,0.68c0,0.48,0.49,0.918,0.828,1.229
	c0.299-0.646,1.544-0.548,1.544-0.548c0.241,0,0.367,0,0.683,0.043c-0.029,0.169-0.031,0.402-0.03,0.58
	c0.003,0.271,0.004,0.469,0.004,0.67c0,0.773-0.029,1.185-0.598,1.709c0.102,0.07,0.397,0.306,0.827,0.306
	c0.877,0,1.002-0.633,1.002-2.014c0-0.166,0.004-0.151-0.008-0.293c0.438,0.476,0.953,1.159,0.953,1.744
	c0,0.104,0.006,0.248-0.036,0.399c0.69,0,1.214-0.714,1.214-1.19c0-0.722-1.105-1.615-1.461-2.009
	c0.059-0.004,0.1-0.008,0.122-0.008c1.21,0,1.454,0.406,1.576,0.711c0.324-0.264,0.603-0.735,0.603-1.331
	c0-0.342-0.073-0.726-0.728-0.726c-0.626,0-1.581,0.093-2.239,0.211c-0.504-0.706-1.501-2.07-1.967-3.126
	c0.188,0.033,0.456,0.056,0.869,0.056c0.208,0,0.43-0.02,0.56-0.075c-2.007-1.736-3.679-3.986-3.679-6.532
	c0-0.408,0.098-0.816,0.235-1.254c0.05-0.012,0.102-0.021,0.153-0.027l5.063,8.105c1.517,2.396,2.706,2.354,4.497,2.354
	c-1.475-1.131-2.466-2.593-2.929-3.333l-4.755-7.604c0.257-0.083,0.51-0.175,0.758-0.271l4.205,6.73
	c1.517,2.396,2.705,2.354,4.497,2.354c-1.492-1.146-2.46-2.581-2.932-3.333l-4.085-6.533c0.232-0.128,0.458-0.265,0.678-0.401
	l3.348,5.354c1.518,2.399,2.704,2.355,4.495,2.355c-1.49-1.145-2.458-2.583-2.932-3.334l-3.431-5.494
	c0.202-0.18,0.395-0.37,0.574-0.563l2.433,3.895c1.518,2.396,2.704,2.354,4.498,2.354c-1.491-1.144-2.462-2.588-2.934-3.338
	l-2.824-4.52c0.152-0.281,0.281-0.568,0.387-0.864L-440.64,482.307z M-463.317,477.102c0-1.688,1.228-3.024,1.66-3.401
	c0.104,0.025,0.208,0.05,0.312,0.072c-0.459,0.561-1.271,1.5-1.271,2.746c0,2.471,2.641,4.616,5.63,4.616
	c-0.02,0.212-0.03,0.435-0.03,0.663c0,0.363,0.021,0.704,0.058,1.024C-460.341,482.801-463.317,480.058-463.317,477.102z
	 M-458.736,497.36l-0.02,0.058h0.06c0.949,0,1.411-0.066,1.717-0.111c0.161-0.021,0.276-0.038,0.4-0.038
	c0.245,0,0.434,0.021,0.434,0.323c0,0.203-0.238,0.524-0.468,0.712c-0.35-0.329-0.834-0.396-1.545-0.396
	c-0.333,0-0.769,0.061-1.001,0.093l-0.038,0.004l-0.041,0.007l0.014,0.11c0.027,0.197,0.063,0.441,0.063,0.771l-0.004,0.3
	l-0.004,0.372c0,0.806,0.11,1.266,0.393,1.612c-0.073,0.027-0.191,0.05-0.268,0.05c-0.5,0-0.646-0.219-0.646-1.661
	c0-0.29-0.015-0.563-0.026-0.742l-0.014-0.268l-0.063,0.049c-0.744,0.565-1.511,1.58-1.557,2.338
	c-0.225-0.146-0.466-0.469-0.466-0.718c0-0.414,0.621-1.034,1.341-1.754l0.414-0.414l0.053-0.056l-0.136-0.032
	c-0.155-0.041-0.441-0.112-0.687-0.112c-0.809,0-1.313,0.151-1.625,0.492c-0.111-0.162-0.206-0.539-0.206-0.763
	c0-0.144,0.028-0.244,0.086-0.302c0.07-0.067,0.18-0.067,0.275-0.067h0.021c0.889,0,1.953,0.159,2.368,0.228l0.024,0.006l0.017-0.02
	c0.071-0.099,1.768-2.355,2.208-3.556c0.101-0.038,0.188-0.064,0.366-0.064c0.334,0,0.426,0.226,0.522,0.568
	C-457.835,495.67-458.495,496.672-458.736,497.36z M-449.588,493.813c0.177,0,0.264,0.028,0.365,0.064
	c0.44,1.198,2.137,3.457,2.208,3.556l0.017,0.021l0.024-0.006c0.415-0.065,1.479-0.227,2.368-0.227h0.02
	c0.097,0,0.207,0,0.275,0.066c0.058,0.06,0.086,0.159,0.086,0.303c0,0.223-0.094,0.6-0.206,0.762
	c-0.312-0.341-0.815-0.492-1.625-0.492c-0.244,0-0.53,0.072-0.686,0.113l-0.064,0.015l-0.072,0.02l0.467,0.468
	c0.72,0.719,1.342,1.34,1.342,1.754c0,0.249-0.242,0.572-0.466,0.718c-0.048-0.758-0.813-1.771-1.559-2.338l-0.063-0.048
	l-0.012,0.266c-0.012,0.182-0.027,0.453-0.027,0.742c0,1.442-0.146,1.661-0.646,1.661c-0.076,0-0.193-0.022-0.267-0.049
	c0.281-0.35,0.393-0.81,0.393-1.613l-0.004-0.373l-0.004-0.3c0-0.33,0.035-0.574,0.062-0.771l0.015-0.11l-0.079-0.011
	c-0.232-0.032-0.668-0.093-1-0.093c-0.712,0-1.194,0.065-1.545,0.396c-0.229-0.188-0.468-0.51-0.468-0.713
	c0-0.302,0.188-0.324,0.433-0.324c0.125,0,0.24,0.018,0.401,0.038c0.306,0.045,0.768,0.111,1.717,0.111h0.06l-0.02-0.058
	c-0.241-0.689-0.901-1.69-1.96-2.979C-450.016,494.038-449.923,493.813-449.588,493.813z M-453.516,474.106
	c-0.105-0.439-0.331-0.89-0.617-1.229c-0.26-0.307-0.69-0.672-1.271-0.672c-0.265,0-0.71,0.124-0.992,0.244
	c-0.105-0.191-0.313-0.656-0.313-0.866c0-0.214,0.363-0.432,1.059-0.432c1.529,0,2.442,0.69,2.442,1.85
	C-453.207,473.407-453.369,473.778-453.516,474.106z M-452.828,472.6c-0.056-0.327-0.18-0.624-0.369-0.878
	c0.01-0.302,0.132-0.586,0.614-0.353c-0.261,0.269-0.06,0.739-0.06,0.739s0.533-0.247,0.423-0.6
	C-451.429,471.701-451.997,472.763-452.828,472.6z M-449.854,482.822c0.041-0.331,0.063-0.674,0.063-1.025
	c0-0.189,0.001-0.411-0.021-0.663c2.952-0.042,5.542-2.168,5.542-4.615c0-1.245-0.812-2.186-1.271-2.745
	c0.104-0.021,0.208-0.046,0.312-0.072c0.432,0.376,1.66,1.712,1.66,3.401C-443.568,480.037-446.502,482.76-449.854,482.822z"/>
<g>
	<polygon fill="#F8D100" points="-424.182,531.397 -421.959,531.397 -421.959,561.396 -427.144,561.396 -427.144,531.397 	"/>
	<polygon fill="#E2001A" points="-424.182,501.247 -421.959,501.247 -421.959,531.397 -427.144,531.397 -427.144,501.247 	"/>
	<polygon points="-421.959,471.396 -421.959,501.396 -424.182,501.396 -427.144,501.396 -427.144,471.396 	"/>
</g>
</svg>
