<?xml version="1.0" encoding="UTF-8" standalone="no"?>
<svg
   xmlns:dc="http://purl.org/dc/elements/1.1/"
   xmlns:cc="http://creativecommons.org/ns#"
   xmlns:rdf="http://www.w3.org/1999/02/22-rdf-syntax-ns#"
   xmlns:svg="http://www.w3.org/2000/svg"
   xmlns="http://www.w3.org/2000/svg"
   xmlns:sodipodi="http://sodipodi.sourceforge.net/DTD/sodipodi-0.dtd"
   xmlns:inkscape="http://www.inkscape.org/namespaces/inkscape"
   width="19"
   height="19"
   viewBox="0 0 36 36"
   version="1.1"
   id="svg4172"
   sodipodi:docname="leichte_sprache_positiv-vers_36px.svg"
   inkscape:version="0.92.4 (f8dce91, 2019-08-02)">
  <metadata
     id="metadata4178">
    <rdf:RDF>
      <cc:Work
         rdf:about="">
        <dc:format>image/svg+xml</dc:format>
        <dc:type
           rdf:resource="http://purl.org/dc/dcmitype/StillImage" />
        <dc:title>Icons/leichte_sprache/leichte_sprache_positiv-vers_36px</dc:title>
      </cc:Work>
    </rdf:RDF>
  </metadata>
  <defs
     id="defs4176" />
  <sodipodi:namedview
     pagecolor="#ffffff"
     bordercolor="#666666"
     borderopacity="1"
     objecttolerance="10"
     gridtolerance="10"
     guidetolerance="10"
     inkscape:pageopacity="0"
     inkscape:pageshadow="2"
     inkscape:window-width="640"
     inkscape:window-height="480"
     id="namedview4174"
     showgrid="false"
     fit-margin-top="0"
     fit-margin-left="0"
     fit-margin-right="0"
     fit-margin-bottom="0"
     inkscape:zoom="12.421053"
     inkscape:cx="8.44455"
     inkscape:cy="8.4443808"
     inkscape:window-x="360"
     inkscape:window-y="112"
     inkscape:window-maximized="0"
     inkscape:current-layer="svg4172" />
  <!-- Generator: Sketch 59.1 (86144) - https://sketch.com -->
  <title
     id="title4156">Icons/leichte_sprache/leichte_sprache_positiv-vers_36px</title>
  <desc
     id="desc4158">Created with Sketch.</desc>
  <g
     style="fill:none;fill-rule:evenodd;stroke:none;stroke-width:1"
     id="Group-18"
     transform="matrix(1.1239391,0,0,1.1239391,2.2478782e-4,0.21064812)">
    <path
       d="m 22,6 c 0,3.313 -2.687,6 -6,6 -3.313,0 -6,-2.687 -6,-6 0,-3.313 2.687,-6 6,-6 3.313,0 6,2.687 6,6"
       id="Fill-2"
       inkscape:connector-curvature="0"
       style="fill:#253276" />
    <path
       d="m 17.9502,31.9951 c 4.366,-0.439 8.733,-3.034 13.1,-3.474 0.524,-0.053 0.95,-0.474 0.95,-0.987 v -15.757 c 0,-0.511 -0.426,-0.94 -0.95,-0.912 -4.367,0.231 -8.734,2.615 -13.1,2.846 -0.524,0.028 -0.95,0.446 -0.95,0.979 v 16.401 c 0,0.532 0.426,0.959 0.95,0.904"
       id="Fill-4"
       inkscape:connector-curvature="0"
       style="fill:#253276" />
    <path
       d="m 14.0498,31.9951 c -4.366,-0.439 -8.733,-3.034 -13.1,-3.474 -0.524,-0.053 -0.95,-0.474 -0.95,-0.987 v -15.757 c 0,-0.511 0.426,-0.94 0.95,-0.912 4.367,0.231 8.734,2.615 13.1,2.846 0.524,0.028 0.95,0.446 0.95,0.979 v 16.401 c 0,0.532 -0.426,0.959 -0.95,0.904"
       id="Fill-6"
       inkscape:connector-curvature="0"
       style="fill:#253276" />
    <path
       d="m 30.2227,15.7197 c -3.761,0 -7.521,2.257 -11.282,2.257 v -2.052 c 3.761,0 7.521,-2.256 11.282,-2.256 z"
       id="Fill-8"
       inkscape:connector-curvature="0"
       style="fill:#ffffff" />
    <path
       d="m 30.2227,19.8223 c -3.761,0 -7.521,2.257 -11.282,2.257 v -2.052 c 3.761,0 7.521,-2.256 11.282,-2.256 z"
       id="Fill-10"
       inkscape:connector-curvature="0"
       style="fill:#ffffff" />
    <path
       d="m 26.9111,24.3945 c -2.657,0.661 -5.313,1.787 -7.971,1.787 v -2.051 c 2.658,0 5.314,-1.127 7.971,-1.788 z"
       id="Fill-12"
       inkscape:connector-curvature="0"
       style="fill:#ffffff" />
    <path
       d="m 12.7715,19.2813 -5.376,5.376 c -0.402,0.402 -1.055,0.402 -1.457,0 l -0.251,-0.251 c -0.402,-0.402 -0.402,-1.055 0,-1.457 l 5.376,-5.376 c 0.402,-0.402 1.054,-0.402 1.456,0 l 0.252,0.252 c 0.402,0.401 0.402,1.054 0,1.456"
       id="Fill-14"
       inkscape:connector-curvature="0"
       style="fill:#ffffff" />
    <path
       d="m 2.75,21.4541 3.313,3.313 c 0.342,0.341 0.897,0.341 1.238,0 l 0.47,-0.471 c 0.342,-0.341 0.342,-0.896 0,-1.238 l -3.312,-3.313 c -0.342,-0.342 -0.897,-0.342 -1.238,0 l -0.471,0.471 c -0.342,0.342 -0.342,0.896 0,1.238"
       id="Fill-16"
       inkscape:connector-curvature="0"
       style="fill:#ffffff" />
  </g>
</svg>
