<?xml version="1.0" encoding="UTF-8" standalone="no"?>
<svg
   xmlns:dc="http://purl.org/dc/elements/1.1/"
   xmlns:cc="http://creativecommons.org/ns#"
   xmlns:rdf="http://www.w3.org/1999/02/22-rdf-syntax-ns#"
   xmlns:svg="http://www.w3.org/2000/svg"
   xmlns="http://www.w3.org/2000/svg"
   xmlns:sodipodi="http://sodipodi.sourceforge.net/DTD/sodipodi-0.dtd"
   xmlns:inkscape="http://www.inkscape.org/namespaces/inkscape"
   width="16"
   height="19"
   viewBox="0 0 30.315789 36"
   version="1.1"
   id="svg4270"
   sodipodi:docname="dgs19px.svg"
   inkscape:version="0.92.4 (f8dce91, 2019-08-02)">
  <metadata
     id="metadata4276">
    <rdf:RDF>
      <cc:Work
         rdf:about="">
        <dc:format>image/svg+xml</dc:format>
        <dc:type
           rdf:resource="http://purl.org/dc/dcmitype/StillImage" />
        <dc:title>Icons/Gehoer/5_Gebaerden_positiv-vers_36px</dc:title>
      </cc:Work>
    </rdf:RDF>
  </metadata>
  <defs
     id="defs4274" />
  <sodipodi:namedview
     pagecolor="#ffffff"
     bordercolor="#666666"
     borderopacity="1"
     objecttolerance="10"
     gridtolerance="10"
     guidetolerance="10"
     inkscape:pageopacity="0"
     inkscape:pageshadow="2"
     inkscape:window-width="774"
     inkscape:window-height="578"
     id="namedview4272"
     showgrid="false"
     inkscape:zoom="12.421053"
     inkscape:cx="9.5"
     inkscape:cy="9.5"
     inkscape:window-x="69"
     inkscape:window-y="27"
     inkscape:window-maximized="0"
     inkscape:current-layer="svg4270" />
  <!-- Generator: Sketch 59.1 (86144) - https://sketch.com -->
  <title
     id="title4250">Icons/Gehoer/5_Gebaerden_positiv-vers_36px</title>
  <desc
     id="desc4252">Created with Sketch.</desc>
  <g
     style="fill:none;fill-rule:evenodd;stroke:none;stroke-width:1"
     id="Group-26"
     transform="matrix(1.1146419,0,0,1.1146419,-0.05972717,0.1310124)">
    <path
       d="m 19.4863,2.2383 -1.488,1.487 0.182,-0.205 c 0.669,-0.668 0.669,-1.752 0,-2.42 -0.668,-0.668 -1.751,-0.668 -2.42,0 l -8.376,8.416 -0.017,-0.022 0.589,-4.236 c 0.111,-0.798 -0.422,-1.542 -1.212,-1.695 -0.765,-0.147 -1.518,0.31 -1.738,1.057 l -3.167,10.71 c -0.173,0.616 0.001,1.278 0.454,1.731 l 6.677,6.679 c 0.633,0.633 1.639,0.694 2.345,0.144 l 4.652,-3.63 7.779,-7.779 c 0.668,-0.668 0.668,-1.752 0,-2.42 -0.669,-0.669 -1.752,-0.669 -2.42,0 l 2.052,-2.051 c 0.668,-0.669 0.668,-1.752 0,-2.42 -0.614,-0.614 -1.577,-0.664 -2.246,-0.152 l 0.774,-0.774 c 0.668,-0.669 0.668,-1.752 0,-2.42 -0.669,-0.669 -1.752,-0.669 -2.42,0"
       id="Fill-2"
       inkscape:connector-curvature="0"
       style="fill:#253276" />
    <path
       d="m 17.3164,14.6641 c -0.153,0 -0.307,-0.059 -0.424,-0.176 -0.233,-0.234 -0.233,-0.613 0,-0.847 l 6.062,-6.061 c 0.433,-0.434 0.433,-1.14 0,-1.573 -0.434,-0.433 -1.139,-0.433 -1.573,0 l -5.704,5.705 c -0.234,0.233 -0.613,0.233 -0.847,0 -0.235,-0.235 -0.235,-0.614 0,-0.848 l 5.704,-5.704 c 0.436,-0.436 1.016,-0.677 1.634,-0.677 0.617,0 1.197,0.241 1.633,0.677 0.437,0.436 0.677,1.017 0.677,1.634 0,0.617 -0.24,1.197 -0.677,1.633 l -6.061,6.061 c -0.117,0.117 -0.271,0.176 -0.424,0.176"
       id="Fill-4"
       inkscape:connector-curvature="0"
       style="fill:#ffffff" />
    <path
       d="m 15.8447,11.3184 c -0.153,0 -0.307,-0.059 -0.424,-0.176 -0.234,-0.233 -0.234,-0.613 0,-0.847 l 6.062,-6.061 c 0.433,-0.434 0.433,-1.139 0,-1.572 -0.21,-0.21 -0.49,-0.326 -0.786,-0.326 -0.298,0 -0.578,0.116 -0.788,0.326 l -5.704,5.704 c -0.233,0.233 -0.613,0.233 -0.847,0 -0.234,-0.235 -0.234,-0.614 0,-0.848 l 5.705,-5.704 c 0.435,-0.436 1.016,-0.677 1.634,-0.677 0.617,0 1.197,0.241 1.633,0.677 0.901,0.9 0.901,2.366 0,3.268 l -6.061,6.06 c -0.117,0.117 -0.271,0.176 -0.424,0.176"
       id="Fill-6"
       inkscape:connector-curvature="0"
       style="fill:#ffffff" />
    <path
       d="m 15.9678,20.8535 c -0.153,0 -0.307,-0.059 -0.424,-0.176 -0.234,-0.234 -0.234,-0.613 0,-0.847 l 7.778,-7.779 c 0.434,-0.433 0.434,-1.138 0,-1.572 -0.209,-0.21 -0.489,-0.326 -0.786,-0.326 -0.297,0 -0.576,0.116 -0.786,0.326 l -4.01,4.009 c -0.233,0.234 -0.613,0.234 -0.847,0 -0.234,-0.235 -0.234,-0.614 0,-0.848 l 4.01,-4.009 c 0.436,-0.436 1.016,-0.676 1.633,-0.676 0.618,0 1.198,0.24 1.634,0.676 0.901,0.901 0.901,2.367 0,3.268 l -7.778,7.778 c -0.117,0.117 -0.271,0.176 -0.424,0.176"
       id="Fill-8"
       inkscape:connector-curvature="0"
       style="fill:#ffffff" />
    <path
       d="m 10.2256,24.8574 c -0.611,0 -1.219,-0.234 -1.679,-0.693 l -6.677,-6.679 c -0.606,-0.606 -0.838,-1.493 -0.608,-2.317 l 0.003,-0.008 3.167,-10.71 c 0.31,-1.048 1.353,-1.683 2.426,-1.476 1.103,0.213 1.847,1.252 1.692,2.365 l -0.589,4.238 c -0.046,0.328 -0.347,0.556 -0.676,0.51 -0.328,-0.044 -0.557,-0.347 -0.511,-0.675 l 0.589,-4.238 c 0.067,-0.481 -0.254,-0.93 -0.732,-1.023 -0.465,-0.089 -0.916,0.185 -1.05,0.639 l -3.166,10.705 c -0.112,0.406 0.003,0.843 0.301,1.142 l 6.679,6.679 c 0.418,0.418 1.086,0.459 1.552,0.095 l 4.652,-3.63 c 0.261,-0.203 0.638,-0.157 0.841,0.103 0.204,0.262 0.157,0.638 -0.104,0.842 l -4.652,3.63 c -0.43,0.336 -0.945,0.501 -1.458,0.501"
       id="Fill-10"
       inkscape:connector-curvature="0"
       style="fill:#ffffff" />
    <path
       d="m 7.3672,10.0937 c -0.153,0 -0.307,-0.059 -0.424,-0.176 -0.234,-0.233 -0.234,-0.613 0,-0.846 l 8.394,-8.395 c 0.436,-0.437 1.016,-0.677 1.634,-0.677 0.617,0 1.197,0.24 1.633,0.677 0.437,0.437 0.677,1.017 0.677,1.634 0,0.617 -0.24,1.197 -0.677,1.634 l -4.978,4.979 c -0.235,0.233 -0.614,0.233 -0.848,0 -0.234,-0.234 -0.234,-0.614 0,-0.848 l 4.979,-4.979 c 0.211,-0.21 0.326,-0.489 0.326,-0.786 0,-0.297 -0.115,-0.576 -0.326,-0.786 -0.433,-0.434 -1.139,-0.434 -1.573,0 l -8.393,8.393 c -0.117,0.117 -0.271,0.176 -0.424,0.176"
       id="Fill-12"
       inkscape:connector-curvature="0"
       style="fill:#ffffff" />
    <path
       d="m 23.4639,21.1494 h -2.104 l 0.275,-0.016 c 0.945,0 1.711,-0.766 1.711,-1.711 0,-0.945 -0.766,-1.711 -1.711,-1.711 l -11.874,0.028 0.003,-0.028 3.412,-2.58 c 0.642,-0.485 0.792,-1.388 0.342,-2.054 -0.437,-0.646 -1.292,-0.855 -1.977,-0.483 l -9.812,5.334 c -0.559,0.314 -0.905,0.905 -0.905,1.545 v 9.445 c 0,0.895 0.668,1.65 1.557,1.759 l 5.856,0.723 h 11 c 0.946,0 1.711,-0.766 1.711,-1.711 0,-0.945 -0.765,-1.711 -1.711,-1.711 h 2.903 c 0.944,0 1.711,-0.767 1.711,-1.711 0,-0.867 -0.646,-1.584 -1.482,-1.696 h 1.095 c 0.945,0 1.712,-0.766 1.712,-1.711 0,-0.945 -0.767,-1.711 -1.712,-1.711"
       id="Fill-14"
       inkscape:connector-curvature="0"
       style="fill:#253276" />
    <path
       d="m 22.1396,28.5771 h -8.572 c -0.331,0 -0.599,-0.268 -0.599,-0.599 0,-0.331 0.268,-0.599 0.599,-0.599 h 8.572 c 0.613,0 1.111,-0.499 1.111,-1.112 0,-0.613 -0.498,-1.112 -1.111,-1.112 h -8.067 c -0.331,0 -0.6,-0.268 -0.6,-0.599 0,-0.332 0.269,-0.599 0.6,-0.599 h 8.067 c 1.273,0 2.311,1.036 2.311,2.31 0,1.274 -1.038,2.31 -2.311,2.31"
       id="Fill-16"
       inkscape:connector-curvature="0"
       style="fill:#ffffff" />
    <path
       d="m 23.4639,25.1709 h -8.571 c -0.331,0 -0.6,-0.269 -0.6,-0.6 0,-0.33 0.269,-0.598 0.6,-0.598 h 8.571 c 0.613,0 1.112,-0.499 1.112,-1.113 0,-0.613 -0.499,-1.111 -1.112,-1.111 h -8.066 c -0.331,0 -0.6,-0.268 -0.6,-0.599 0,-0.332 0.269,-0.6 0.6,-0.6 h 8.066 c 1.274,0 2.311,1.037 2.311,2.31 0,1.275 -1.037,2.311 -2.311,2.311"
       id="Fill-18"
       inkscape:connector-curvature="0"
       style="fill:#ffffff" />
    <path
       d="m 19.2373,32 h -11 c -0.331,0 -0.6,-0.269 -0.6,-0.6 0,-0.331 0.269,-0.598 0.6,-0.598 h 11 c 0.613,0 1.112,-0.499 1.112,-1.113 0,-0.613 -0.499,-1.112 -1.112,-1.112 h -5.67 c -0.331,0 -0.599,-0.267 -0.599,-0.598 0,-0.332 0.268,-0.6 0.599,-0.6 h 5.67 c 1.274,0 2.311,1.036 2.311,2.31 0,1.275 -1.037,2.311 -2.311,2.311"
       id="Fill-20"
       inkscape:connector-curvature="0"
       style="fill:#ffffff" />
    <path
       d="m 8.2383,32 c -0.024,0 -0.05,-0.002 -0.074,-0.005 l -5.857,-0.723 c -1.187,-0.146 -2.082,-1.158 -2.082,-2.354 v -9.444 c 0,-0.856 0.463,-1.649 1.209,-2.068 l 0.008,-0.004 9.813,-5.334 c 0.96,-0.522 2.146,-0.232 2.758,0.673 0.63,0.931 0.421,2.192 -0.476,2.869 l -3.412,2.579 c -0.264,0.2 -0.64,0.148 -0.84,-0.117 -0.199,-0.263 -0.148,-0.639 0.117,-0.839 l 3.412,-2.58 c 0.389,-0.293 0.479,-0.838 0.206,-1.241 -0.264,-0.391 -0.778,-0.516 -1.193,-0.291 l -9.809,5.332 c -0.366,0.208 -0.594,0.599 -0.594,1.021 v 9.444 c 0,0.592 0.443,1.093 1.03,1.165 0,0 6.418,1.063 6.378,1.391 C 8.7953,31.777 8.5363,32 8.2383,32"
       id="Fill-22"
       inkscape:connector-curvature="0"
       style="fill:#ffffff" />
    <path
       d="m 21.6348,21.7334 h -7.042 c -0.331,0 -0.6,-0.269 -0.6,-0.6 0,-0.331 0.269,-0.599 0.6,-0.599 h 7.042 c 0.613,0 1.111,-0.499 1.111,-1.112 0,-0.613 -0.498,-1.112 -1.111,-1.112 H 9.7638 c -0.331,0 -0.6,-0.268 -0.6,-0.599 0,-0.332 0.269,-0.599 0.6,-0.599 h 11.871 c 1.274,0 2.311,1.036 2.311,2.31 0,1.274 -1.037,2.311 -2.311,2.311"
       id="Fill-24"
       inkscape:connector-curvature="0"
       style="fill:#ffffff" />
  </g>
</svg>
